<?xml version="1.0" encoding="utf-8"?>
<svg width="731" height="1002" viewBox="0 0 731 1002" fill="none" xmlns="http://www.w3.org/2000/svg">
  <defs>
    <radialGradient id="gradient_1" gradientUnits="userSpaceOnUse" cx="0" cy="0" r="1" gradientTransform="matrix(123 993 -680.322 84.27 353 0)">
      <stop offset="0" stop-color="#8046DB" />
      <stop offset="1" stop-color="#663AAD" />
    </radialGradient>
    <filter color-interpolation-filters="sRGB" x="-705" y="-920" width="707" height="922" id="filter_2">
      <feFlood flood-opacity="0" result="BackgroundImageFix_1" />
      <feColorMatrix type="matrix" values="0 0 0 0 0 0 0 0 0 0 0 0 0 0 0 0 0 0 1 0" in="SourceAlpha" />
      <feOffset dx="0" dy="0" />
      <feGaussianBlur stdDeviation="4" />
      <feColorMatrix type="matrix" values="0 0 0 0 0 0 0 0 0 0 0 0 0 0 0 0 0 0 0.251 0" />
      <feBlend mode="normal" in2="BackgroundImageFix_1" result="Shadow_2" />
      <feBlend mode="normal" in="SourceGraphic" in2="Shadow_2" result="Shape_3" />
    </filter>
    <radialGradient id="gradient_3" gradientUnits="userSpaceOnUse" cx="0" cy="0" r="1" gradientTransform="matrix(42.624 277.868 -234.192 35.924 122.327 0)">
      <stop offset="0" stop-color="#6539AB" />
      <stop offset="1" stop-color="#4D2E81" />
    </radialGradient>
    <filter color-interpolation-filters="sRGB" x="-243" y="-256" width="245" height="258" id="filter_4">
      <feFlood flood-opacity="0" result="BackgroundImageFix_1" />
      <feColorMatrix type="matrix" values="0 0 0 0 0 0 0 0 0 0 0 0 0 0 0 0 0 0 1 0" in="SourceAlpha" />
      <feOffset dx="2" dy="4" />
      <feGaussianBlur stdDeviation="4" />
      <feColorMatrix type="matrix" values="0 0 0 0 0 0 0 0 0 0 0 0 0 0 0 0 0 0 0.251 0" />
      <feBlend mode="normal" in2="BackgroundImageFix_1" result="Shadow_2" />
      <feBlend mode="normal" in="SourceGraphic" in2="Shadow_2" result="Shape_3" />
    </filter>
    <radialGradient id="gradient_5" gradientUnits="userSpaceOnUse" cx="0" cy="0" r="1" gradientTransform="matrix(32.488 98.07 -82.266 27.252 37 0)">
      <stop offset="0.034" stop-color="#F0D7FF" />
      <stop offset="1" stop-color="#CEACFF" />
    </radialGradient>
    <filter color-interpolation-filters="sRGB" x="-98" y="-98" width="100" height="100" id="filter_6">
      <feFlood flood-opacity="0" result="BackgroundImageFix_1" />
      <feColorMatrix type="matrix" values="0 0 0 0 0 0 0 0 0 0 0 0 0 0 0 0 0 0 1 0" in="SourceAlpha" />
      <feOffset dx="2" dy="4" />
      <feGaussianBlur stdDeviation="4" />
      <feColorMatrix type="matrix" values="0 0 0 0 0 0 0 0 0 0 0 0 0 0 0 0 0 0 0.251 0" />
      <feBlend mode="normal" in2="BackgroundImageFix_1" result="Shadow_2" />
      <feBlend mode="normal" in="SourceGraphic" in2="Shadow_2" result="Shape_3" />
    </filter>
    <radialGradient id="gradient_7" gradientUnits="userSpaceOnUse" cx="0" cy="0" r="1" gradientTransform="matrix(46.468 204.57 -177.36 40.288 102.235 2.358)">
      <stop offset="0" stop-color="#F0D7FF" />
      <stop offset="1" stop-color="#CEACFF" />
    </radialGradient>
    <filter color-interpolation-filters="sRGB" x="-212" y="-209" width="214" height="211" id="filter_8">
      <feFlood flood-opacity="0" result="BackgroundImageFix_1" />
      <feColorMatrix type="matrix" values="0 0 0 0 0 0 0 0 0 0 0 0 0 0 0 0 0 0 1 0" in="SourceAlpha" />
      <feOffset dx="4" dy="8" />
      <feGaussianBlur stdDeviation="8" />
      <feColorMatrix type="matrix" values="0 0 0 0 0 0 0 0 0 0 0 0 0 0 0 0 0 0 0.251 0" />
      <feBlend mode="normal" in2="BackgroundImageFix_1" result="Shadow_2" />
      <feBlend mode="normal" in="SourceGraphic" in2="Shadow_2" result="Shape_3" />
    </filter>
    <filter color-interpolation-filters="sRGB" x="-384.844" y="-230.072" width="386.844" height="232.072" id="filter_9">
      <feFlood flood-opacity="0" result="BackgroundImageFix_1" />
      <feColorMatrix type="matrix" values="0 0 0 0 0 0 0 0 0 0 0 0 0 0 0 0 0 0 1 0" in="SourceAlpha" />
      <feOffset dx="4" dy="8" />
      <feGaussianBlur stdDeviation="8" />
      <feColorMatrix type="matrix" values="0 0 0 0 0 0 0 0 0 0 0 0 0 0 0 0 0 0 0.251 0" />
      <feBlend mode="normal" in2="BackgroundImageFix_1" result="Shadow_2" />
      <feBlend mode="normal" in="SourceGraphic" in2="Shadow_2" result="Shape_3" />
    </filter>
  </defs>
  <g transform="translate(12 8)">
    <path d="M637 0C675.665 0 707 31.3348 707 70L707 852C707 890.665 675.665 922 637 922L70 922C31.3348 922 0 890.665 0 852L0 70C0 31.3348 31.3348 0 70 0L637 0Z" fill="url(#gradient_1)" filter="url(#filter_2)" transform="translate(0 60)" />
    <path d="M186.737 9.50098C186.687 -1.45662 42.22 -6.87489 18.2366 15.5012C-5.74685 37.8773 -0.733427 52.4304 3.73558 53.501C8.2046 54.5716 8.69271 42.7029 32.736 28.5011C56.7795 14.2993 186.788 20.4586 186.737 9.50098Z" fill="#B69EF2" fill-rule="evenodd" fill-opacity="0.498" transform="translate(14 64)" />
    <path d="M210 0C229.333 0 245 15.6674 245 35L245 223C245 242.333 229.333 258 210 258L35 258C15.6674 258 0 242.333 0 223L0 35C0 15.6674 15.6674 0 35 0L210 0Z" fill="url(#gradient_3)" filter="url(#filter_4)" transform="translate(231 0)" />
    <path d="M0 50C0 22.3858 22.3858 0 50 0C77.6142 0 100 22.3858 100 50C100 77.6142 77.6142 100 50 100C22.3858 100 0 77.6142 0 50Z" fill="url(#gradient_5)" fill-rule="evenodd" filter="url(#filter_6)" transform="translate(303 79)" />
    <path d="M0 105.5C0 47.2339 47.9055 0 107 0C166.094 0 214 47.2339 214 105.5C214 163.766 166.094 211 107 211C47.9055 211 0 163.766 0 105.5Z" fill="url(#gradient_7)" fill-rule="evenodd" filter="url(#filter_8)" transform="translate(246 325)" />
    <path d="M375.524 128.134C384.814 159.23 393.654 202.466 379.213 214.018C345.696 237.476 49.3466 240.655 7.39658 208.063C-5.75194 196.73 0.452499 152.538 11.8295 121.129C45.7781 31.2109 108.981 -0.982056 192.809 0.0227051C275.295 0.739746 340.287 30.0912 375.524 128.134Z" fill="url(#gradient_7)" fill-rule="evenodd" filter="url(#filter_9)" transform="translate(160.192 590.407)" />
  </g>
</svg>